<svg width="407" height="321" viewBox="0 0 407 321" fill="none" xmlns="http://www.w3.org/2000/svg">
<g clip-path="url(#clip0)">
<path opacity="0.18" d="M361.05 309.73C382.22 301.73 401.36 284.62 405.51 262.36C408.93 244 401.88 225.36 393.31 208.75C384.74 192.14 374.36 176.09 370.36 157.85C362.91 123.93 378.28 86.3 363.68 54.79C359.29 45.33 352.43 37.17 344.68 30.22C310.79 -0.0600052 259.9 -6.84 216.49 6.55C173.08 19.94 136.84 51.2 110.18 87.98C99.18 103.14 89.62 119.33 77.63 133.7C61.65 152.84 40.91 169.64 33.97 193.55C28.92 210.83 31.97 229.55 37.97 246.55C47.2 272.61 86.97 318.96 105.9 318.87C148.09 318.66 229.04 320.73 268.15 319.23C297.45 318.08 330.38 321.31 361.05 309.73Z" fill="#857C8D"/>
<path d="M180.2 274.62C179.2 277.47 178.32 280.74 179.77 283.39C180.74 284.867 182.045 286.094 183.58 286.97L197.38 296.35C200.03 298.15 202.84 300 206.02 300.24C209.2 300.48 212.81 298.45 213.08 295.24C213.4 291.57 209.55 289.06 207.75 285.84C205.39 281.62 206.69 276.39 207.92 271.71C211.021 259.931 213.287 247.948 214.7 235.85C211.87 234.69 203.63 229.5 200.7 230.36C197.4 231.36 194.42 240.59 192.95 243.6C187.981 253.63 183.721 263.995 180.2 274.62Z" fill="#F1AF8C"/>
<path d="M206.67 195.47C203.09 205.64 199.29 215.84 193.55 224.98C193.342 225.245 193.232 225.573 193.24 225.91C193.331 226.227 193.529 226.502 193.8 226.69C199.57 231.74 205.8 237.01 213.39 238.1C213.885 238.214 214.403 238.169 214.87 237.97C215.308 237.659 215.631 237.213 215.79 236.7C220.63 225.49 222.34 213.21 222.18 201.07C222.075 195.006 221.594 188.954 220.74 182.95C220.54 181.49 220.43 175.01 219.16 174.25C217.23 173.11 215.11 177.09 214.27 178.34C210.79 183.55 208.73 189.55 206.67 195.47Z" fill="#473BF0"/>
<path d="M222.36 176.09C222.36 176.09 217.85 177.78 214.18 190.48C210.51 203.18 201.75 233.96 201.75 233.96C201.75 233.96 215.3 240.73 218.69 238.19C222.08 235.65 222.36 176.09 222.36 176.09Z" fill="url(#paint0_linear)"/>
<path d="M260.8 163.01C268.18 162.78 275.65 163.14 282.75 165.14C289.85 167.14 296.6 170.92 301.26 176.65C306.42 182.99 308.68 191.28 309.2 199.43C309.72 207.58 308.64 215.75 307.82 223.89C305.899 242.943 305.391 262.112 306.3 281.24C306.52 285.82 309.14 309.73 305.92 313C303.92 315.06 307.92 317.12 305.07 317.8C281.77 323.4 239.91 320.65 217.85 311.31C212.24 308.93 206.61 305.62 203.85 300.2C200.85 294.33 208.95 271.06 209.92 264.53C212.86 244.603 214.98 224.57 216.28 204.43C216.85 195.52 216.19 185.92 218.02 177.17C219.35 170.82 223.44 169.09 229.34 167.53C239.625 164.854 250.178 163.338 260.8 163.01Z" fill="#473BF0"/>
<path d="M279.97 267.26C279.2 271.31 278.19 275.54 275.42 278.6C273.229 280.79 270.548 282.428 267.6 283.38C253.7 288.62 237.85 287.8 224.53 294.38C223.59 294.792 222.725 295.356 221.97 296.05C219.4 298.59 220.12 303.05 222.16 306.05C226.69 312.68 235.5 314.54 243.45 315.77C262.51 318.77 281.97 321.22 301.02 318.15C302.057 318.075 303.048 317.696 303.87 317.06C304.527 316.297 304.948 315.359 305.08 314.36C309.4 295.18 306 275.21 305.92 255.55C305.92 244.21 306.92 232.86 306.15 221.55C305.762 214.512 304.299 207.575 301.81 200.98C300.04 196.5 294.86 186.61 291.75 195.79C286.81 210.38 285.39 226.11 283.61 241.32C282.64 249.99 281.6 258.67 279.97 267.26Z" fill="url(#paint1_linear)"/>
<path d="M285.93 302.42H124.31C119.776 302.42 116.1 306.096 116.1 310.63C116.1 315.164 119.776 318.84 124.31 318.84H285.93C290.464 318.84 294.14 315.164 294.14 310.63C294.14 306.096 290.464 302.42 285.93 302.42Z" fill="#68E1FD"/>
<path d="M285.93 302.42H124.31C119.776 302.42 116.1 306.096 116.1 310.63C116.1 315.164 119.776 318.84 124.31 318.84H285.93C290.464 318.84 294.14 315.164 294.14 310.63C294.14 306.096 290.464 302.42 285.93 302.42Z" fill="url(#paint2_linear)"/>
<path d="M242.97 178.55C239.66 178.02 237.8 174.69 239.28 166.67C239.44 165.78 239.65 164.92 239.89 164.06C239.89 163.9 239.98 163.74 240.02 163.58C240.38 162.34 240.79 161.1 241.19 159.87C242.303 156.918 242.892 153.795 242.93 150.64C242.84 148.34 242.66 145.95 243.51 143.83C244.327 142.031 245.607 140.481 247.22 139.34C250.79 136.59 261.22 131.42 263.22 138.25C264.11 141.17 263.46 144.57 263.42 147.56C263.22 151.845 264.007 156.118 265.72 160.05C267.9 164.43 251.1 179.85 242.97 178.55Z" fill="#F1AF8C"/>
<path d="M240.62 162.26C240.62 162.26 259.06 155.26 262.62 144.19L242.97 150.62C242.97 150.62 242.5 160.75 240.62 162.26Z" fill="url(#paint3_linear)"/>
<path d="M290.61 186.2C288.728 207.121 292.196 228.178 300.69 247.39C300.941 248.099 301.364 248.734 301.92 249.24C302.817 249.797 303.867 250.056 304.92 249.98C313.146 250.157 321.195 247.573 327.78 242.64C329.78 241.13 331.66 239.2 331.83 236.85C331.835 235.59 331.586 234.342 331.1 233.18C325.995 218.344 320.035 203.817 313.25 189.67C310.73 184.43 307.35 178.29 301.25 175.98C293.91 173.21 291.12 180.72 290.61 186.2Z" fill="#473BF0"/>
<path d="M297.61 306.18L341.41 297.81C344 297.31 346.7 296.81 348.75 295.11C351.56 292.85 352.55 288.89 352.14 285.3C351.73 281.71 350.14 278.38 348.56 275.12C342.34 262.24 329.72 239.12 329.64 240.47C321.98 242.09 315.64 242.17 309.06 246.38C307.927 246.991 306.97 247.883 306.28 248.97C303.65 253.97 310.84 261.27 313.28 265.07C314.215 266.285 314.84 267.709 315.1 269.22C315.152 270.288 314.954 271.353 314.52 272.33C312.15 278.15 303.71 281.54 298.52 284.53C291.734 288.633 284.127 291.187 276.24 292.01C270.12 292.53 263.87 291.74 257.89 293.11C254.222 293.984 250.785 295.636 247.812 297.955C244.84 300.274 242.4 303.205 240.66 306.55C244.22 308.81 248.85 307.5 252.95 306.47C260.547 304.586 268.4 303.954 276.2 304.6C281.26 305.03 295.21 310.89 297.61 306.18Z" fill="#F1AF8C"/>
<path d="M229.89 318.85H105.89L73.18 235.85C72.7367 234.743 72.5717 233.544 72.6996 232.358C72.8275 231.172 73.2444 230.036 73.9137 229.049C74.5829 228.062 75.4842 227.254 76.5383 226.696C77.5925 226.139 78.7674 225.848 79.96 225.85H177.3C182.014 225.847 186.62 227.265 190.517 229.917C194.414 232.569 197.423 236.334 199.15 240.72L229.89 318.85Z" fill="#68E1FD"/>
<path d="M229.89 318.85H105.89L73.18 235.85C72.7367 234.743 72.5717 233.544 72.6996 232.358C72.8275 231.172 73.2444 230.036 73.9137 229.049C74.5829 228.062 75.4842 227.254 76.5383 226.696C77.5925 226.139 78.7674 225.848 79.96 225.85H177.3C182.014 225.847 186.62 227.265 190.517 229.917C194.414 232.569 197.423 236.334 199.15 240.72L229.89 318.85Z" fill="url(#paint4_linear)"/>
<path d="M223.59 318.94H105.77L74.69 240.13C74.2763 239.08 74.1254 237.944 74.2504 236.823C74.3754 235.701 74.7725 234.626 75.4072 233.693C76.042 232.76 76.8951 231.995 77.8925 231.467C78.8899 230.938 80.0012 230.661 81.13 230.66H173.59C178.068 230.663 182.442 232.012 186.143 234.532C189.845 237.051 192.704 240.625 194.35 244.79L223.59 318.94Z" fill="url(#paint5_linear)"/>
<path d="M215.16 80.14L217.97 131.55C217.97 131.55 219.22 150.95 238.45 151.14C261.55 151.37 268.58 137.94 272.09 127.72C275.6 117.5 278.77 87.48 272.09 79.18C265.41 70.88 227.82 50.45 215.16 80.14Z" fill="#F1AF8C"/>
<path d="M229.77 49.27C220.71 49.11 210.36 53.34 206.23 61.89C205.239 63.8573 204.699 66.021 204.651 68.2233C204.603 70.4257 205.046 72.611 205.95 74.62C206.282 75.2109 206.544 75.8384 206.73 76.49C206.82 77.2105 206.82 77.9395 206.73 78.66C206.651 80.3971 207.001 82.1268 207.75 83.6964C208.498 85.2661 209.621 86.6273 211.02 87.66C212.61 88.81 214.54 89.53 215.81 91.02L215.32 81.45C215.207 80.9329 215.303 80.392 215.588 79.9459C215.873 79.4998 216.323 79.1848 216.84 79.07L222.93 76.23C222.93 76.23 224.81 77.6 225.04 77.71C226.051 78.1404 227.142 78.3484 228.24 78.32C230.627 78.3763 233.014 78.2425 235.38 77.92C240.49 77.19 245.38 75.32 250.15 73.46C249.996 74.9385 249.356 76.3241 248.33 77.4L263.86 80.4C266.135 83.5276 267.968 86.953 269.31 90.58C270.384 93.4149 271.089 96.3757 271.41 99.39C271.826 103.488 271.442 107.628 270.28 111.58C271.336 110.775 272.261 109.81 273.02 108.72C274.424 109.695 275.978 110.435 277.62 110.91C277.962 111.037 278.332 111.068 278.69 111C279.45 110.79 279.61 109.89 279.69 109.17C280.31 102.72 285.11 97.27 287.31 91.11C289.98 83.65 288.63 75.26 284.55 68.35C283.341 66.1605 281.698 64.2412 279.72 62.71C272.57 57.47 262.41 59.87 254.25 57.13C250.37 55.83 247.25 53.36 243.54 51.73C239.42 49.98 234.26 49.35 229.77 49.27Z" fill="#3F3D56"/>
<path d="M229.77 49.27C220.71 49.11 210.36 53.34 206.23 61.89C205.239 63.8573 204.699 66.021 204.651 68.2233C204.603 70.4257 205.046 72.611 205.95 74.62C206.282 75.2109 206.544 75.8384 206.73 76.49C206.82 77.2105 206.82 77.9395 206.73 78.66C206.651 80.3971 207.001 82.1268 207.75 83.6964C208.498 85.2661 209.621 86.6273 211.02 87.66C212.61 88.81 214.54 89.53 215.81 91.02L215.32 81.45C215.207 80.9329 215.303 80.392 215.588 79.9459C215.873 79.4998 216.323 79.1848 216.84 79.07L222.93 76.23C222.93 76.23 224.81 77.6 225.04 77.71C226.051 78.1404 227.142 78.3484 228.24 78.32C230.627 78.3763 233.014 78.2425 235.38 77.92C240.49 77.19 245.38 75.32 250.15 73.46C249.996 74.9385 249.356 76.3241 248.33 77.4L263.86 80.4C266.135 83.5276 267.968 86.953 269.31 90.58C270.384 93.4149 271.089 96.3757 271.41 99.39C271.826 103.488 271.442 107.628 270.28 111.58C271.336 110.775 272.261 109.81 273.02 108.72C274.424 109.695 275.978 110.435 277.62 110.91C277.962 111.037 278.332 111.068 278.69 111C279.45 110.79 279.61 109.89 279.69 109.17C280.31 102.72 285.11 97.27 287.31 91.11C289.98 83.65 288.63 75.26 284.55 68.35C283.341 66.1605 281.698 64.2412 279.72 62.71C272.57 57.47 262.41 59.87 254.25 57.13C250.37 55.83 247.25 53.36 243.54 51.73C239.42 49.98 234.26 49.35 229.77 49.27Z" fill="url(#paint6_linear)"/>
<path d="M208.7 77.55C210.47 74.05 214.31 71.97 218.18 71.34C222.05 70.71 226.01 71.29 229.88 71.88C226.13 74.88 215.66 79.35 215.46 80.15C215.319 81.5658 215.302 82.9913 215.41 84.41C215.55 86.47 215.62 88.63 215.61 90.69C214.644 89.7439 213.562 88.924 212.39 88.25C211.382 87.8615 210.464 87.273 209.69 86.52C208.678 85.2791 208.047 83.7724 207.871 82.1811C207.696 80.5898 207.983 78.9817 208.7 77.55Z" fill="url(#paint7_linear)"/>
<path d="M111.943 238.183L112.792 240.716C112.792 240.716 112.317 240.237 111.687 240.071C111.057 239.906 110.464 240.118 110.911 241.354L113.065 247.309C113.249 247.816 113.586 248.286 114.41 248.297C115.234 248.308 115.291 247.716 115.291 247.716L115.486 248.255L116.934 248.274L113.29 238.201L111.943 238.183ZM113.614 243.086L115.045 247.042C115.045 247.042 114.498 247.905 114.083 246.755L112.25 241.689C111.668 240.082 113 241.391 113 241.391L113.614 243.086ZM110.13 243.699L111.281 246.88C111.281 246.88 111.032 247.325 110.689 247.32C110.346 247.316 110.182 246.737 110.182 246.737L109.925 246.027C109.925 246.027 109.672 245.346 109.564 245.097C109.089 244.007 110.165 243.734 110.13 243.699L110.13 243.699ZM107.609 242.975L108.856 242.991C108.856 242.991 108.5 241.915 108.351 241.503C108.202 241.091 109.009 240.912 109.146 241.293L109.387 241.957C109.513 242.306 109.52 242.493 109.14 242.963C109.013 243.121 108.345 243.472 108.111 243.801C107.948 244.03 108.093 244.404 108.299 244.974L109.157 247.345C109.398 248.01 109.739 248.231 110.576 248.242C111.026 248.248 111.438 247.628 111.438 247.628L111.667 248.261L113.116 248.28L110.973 242.357C110.239 240.33 109.523 240.095 108.341 240.08C107.16 240.064 106.789 240.946 107.041 241.643C107.293 242.34 107.61 243.069 107.609 242.975L107.609 242.975ZM105.556 248.181L106.911 248.199L105.274 243.673C105.274 243.673 105.385 243.664 105.901 243.681C106.654 243.705 107.334 243.23 106.954 242.29C106.579 241.361 106.1 239.93 105.892 239.355C105.685 238.781 104.902 238.202 104.175 238.193L101.932 238.163L105.556 248.181ZM103.596 239.035L103.848 239.038C104.28 239.029 104.657 239.258 104.768 239.566C104.965 240.109 104.885 239.852 104.885 239.852L105.747 242.232C105.827 242.453 105.951 242.759 105.507 242.753L104.938 242.746L103.596 239.035L103.596 239.035ZM94.3147 240.031L97.2239 248.072L98.7396 248.092L96.3559 241.503C96.1955 241.06 96.6184 240.561 96.7903 241.036L99.3458 248.1L100.76 248.118L98.0559 240.643C97.5517 239.249 95.9778 240.458 95.9778 240.458L95.8418 240.082L94.3147 240.031ZM100.585 239.888L101.076 243.93L103.408 248.153L105.058 248.175L102.444 243.821L102.034 239.907L100.585 239.888ZM97.5144 238.051L101.159 248.123L102.54 248.142L98.8954 238.069L97.5144 238.051ZM92.3872 239.907L95.3325 248.047L96.7134 248.065L93.7797 239.957L92.3872 239.907ZM87.7596 237.955L91.3924 247.996L92.9081 248.015L90.5244 241.427C90.364 240.984 90.7868 240.485 90.9587 240.96L93.5143 248.023L94.9289 248.042L92.2244 240.567C91.7202 239.173 90.1462 240.382 90.1462 240.382L89.2867 238.006L87.7596 237.955ZM83.7942 239.195L85.1415 239.213L88.3044 247.955L89.8201 247.975L86.6801 239.296L87.9937 239.313L87.5124 237.983L83.3695 237.929L83.7942 239.195Z" fill="white"/>
<path d="M92.8929 239.263C93.5224 239.271 93.8591 238.798 93.6449 238.206C93.4307 237.614 92.7468 237.128 92.1174 237.119C91.4879 237.111 91.1512 237.584 91.3654 238.176C91.5796 238.768 92.2635 239.255 92.8929 239.263Z" fill="#D40000"/>
</g>
<defs>
<linearGradient id="paint0_linear" x1="266.71" y1="205.35" x2="198.21" y2="208.36" gradientUnits="userSpaceOnUse">
<stop offset="0.01"/>
<stop offset="1" stop-opacity="0"/>
</linearGradient>
<linearGradient id="paint1_linear" x1="38622.3" y1="56784.2" x2="12953.9" y2="40620" gradientUnits="userSpaceOnUse">
<stop offset="0.01"/>
<stop offset="1" stop-opacity="0"/>
</linearGradient>
<linearGradient id="paint2_linear" x1="36568" y1="5297.71" x2="36570.6" y2="5767.47" gradientUnits="userSpaceOnUse">
<stop offset="0.01"/>
<stop offset="1" stop-opacity="0"/>
</linearGradient>
<linearGradient id="paint3_linear" x1="5943.68" y1="2939.08" x2="5856.55" y2="3769.76" gradientUnits="userSpaceOnUse">
<stop offset="0.01"/>
<stop offset="1" stop-opacity="0"/>
</linearGradient>
<linearGradient id="paint4_linear" x1="38682.7" y1="13711.8" x2="32045.8" y2="33536.2" gradientUnits="userSpaceOnUse">
<stop offset="0.01"/>
<stop offset="1" stop-opacity="0"/>
</linearGradient>
<linearGradient id="paint5_linear" x1="177.25" y1="357.75" x2="115.15" y2="184.99" gradientUnits="userSpaceOnUse">
<stop offset="0.01"/>
<stop offset="0.09" stop-opacity="0.82"/>
<stop offset="1" stop-opacity="0"/>
</linearGradient>
<linearGradient id="paint6_linear" x1="23018.4" y1="5957.91" x2="21940.3" y2="7121.67" gradientUnits="userSpaceOnUse">
<stop offset="0.01" stop-color="#3F3D56"/>
<stop offset="1" stop-opacity="0"/>
</linearGradient>
<linearGradient id="paint7_linear" x1="5097.39" y1="2492.13" x2="5133.56" y2="1911.69" gradientUnits="userSpaceOnUse">
<stop offset="0.01"/>
<stop offset="1" stop-opacity="0"/>
</linearGradient>
<clipPath id="clip0">
<rect width="406.39" height="320.69" fill="white"/>
</clipPath>
</defs>
</svg>
